<?xml version="1.0" standalone="no"?>
<!DOCTYPE svg PUBLIC "-//W3C//DTD SVG 20010904//EN"
 "http://www.w3.org/TR/2001/REC-SVG-20010904/DTD/svg10.dtd">
<svg version="1.0" xmlns="http://www.w3.org/2000/svg"
 width="32.000000pt" height="32.000000pt" viewBox="0 0 32.000000 32.000000"
 preserveAspectRatio="xMidYMid meet">

<g transform="translate(0.000000,32.000000) scale(0.100000,-0.100000)"
fill="#000000" stroke="none">
<path d="M101 303 c-20 -10 -43 -34 -54 -56 -28 -55 -17 -100 41 -157 26 -26
53 -55 60 -66 12 -19 12 -19 25 0 6 11 33 40 59 66 56 56 68 100 42 155 -31
66 -108 92 -173 58z m125 -24 c50 -41 54 -119 8 -161 -14 -13 -34 -30 -44 -39
-10 -9 -20 -23 -24 -30 -5 -12 -7 -12 -12 0 -4 7 -14 21 -24 30 -10 9 -30 26
-44 39 -51 47 -39 136 25 170 28 15 93 10 115 -9z"/>
<path d="M101 244 c-27 -34 -27 -74 -1 -102 52 -55 139 -23 140 51 0 69 -97
104 -139 51z m101 -11 c24 -21 23 -58 -2 -83 -55 -55 -135 24 -83 82 20 22 61
23 85 1z"/>
<path d="M153 206 c-25 -12 -29 -21 -12 -31 11 -7 49 22 49 37 0 10 -8 9 -37
-6z"/>
</g>
</svg>
