<?xml version="1.0" standalone="no"?>
<!DOCTYPE svg PUBLIC "-//W3C//DTD SVG 20010904//EN"
 "http://www.w3.org/TR/2001/REC-SVG-20010904/DTD/svg10.dtd">
<svg version="1.0" xmlns="http://www.w3.org/2000/svg"
 width="32.000000pt" height="32.000000pt" viewBox="0 0 32.000000 32.000000"
 preserveAspectRatio="xMidYMid meet">

<g transform="translate(0.000000,32.000000) scale(0.100000,-0.100000)"
fill="#000000" stroke="none">
<path d="M100 287 c-28 -21 -50 -61 -50 -87 0 -28 57 -131 91 -165 l20 -20 25
30 c42 50 84 129 84 157 0 16 -13 42 -31 63 -27 31 -37 35 -78 35 -25 0 -53
-6 -61 -13z m123 -17 c40 -32 44 -79 12 -137 -14 -26 -37 -61 -51 -76 l-24
-28 -24 28 c-49 55 -78 122 -72 158 13 68 103 99 159 55z"/>
<path d="M106 238 c-36 -51 -7 -108 54 -108 61 0 90 57 54 108 -21 31 -87 31
-108 0z m96 -5 c22 -20 23 -51 1 -75 -32 -36 -103 -12 -103 35 0 49 64 75 102
40z"/>
<path d="M145 230 c-3 -6 1 -7 9 -4 19 7 22 -16 4 -34 -9 -9 -9 -12 -1 -12 14
0 27 36 18 50 -8 13 -22 13 -30 0z"/>
</g>
</svg>
